# Max2Obj Version 4.0 Mar 10th, 2001
#
# object fb_jingjichang to come ...
#
v  0.000000 0.000000 -0.000000
v  31.090910 0.000000 -0.000000
v  0.000000 0.000000 31.090910
v  31.090910 0.000000 31.090910
# 4 vertices

vt  0.000000 0.000000 0.000000
vt  0.000000 0.971591 0.000000
vt  0.971591 0.000000 0.000000
vt  0.971591 0.971591 0.000000
# 4 texture vertices

vn  0.000000 1.000000 -0.000000
vn  0.000000 1.000000 -0.000000
vn  0.000000 1.000000 -0.000000
vn  0.000000 1.000000 -0.000000
# 4 vertex normals

g fb_jingjichang
s 0
f 1/1/1 3/3/3 4/4/4
f 4/4/4 2/2/2 1/1/1
# 2 faces

g
