# 3ds Max Wavefront OBJ Exporter v0.97b - (c)2007 guruware
# File Created: 02.03.2016 15:17:53

mtllib fb_mishihuangmo.mtl

#
# object fb_mishihuangmo
#

v  0.0000 0.0000 -0.0000
v  0.0000 0.0000 31.0909
v  12.6307 0.0000 31.0909
v  12.6307 0.0000 -0.0000
# 4 vertices

vn 0.0000 1.0000 -0.0000
# 1 vertex normals

vt 0.0000 0.0000 0.0000
vt 0.9716 0.0000 0.0000
vt 0.9716 0.3947 0.0000
vt 0.0000 0.3947 0.0000
# 4 texture coords

g fb_mishihuangmo
usemtl _fb_mishihuangmodefault
s 1
f 1/1/1 2/2/1 3/3/1 4/4/1 
# 1 polygons

