# 3ds Max Wavefront OBJ Exporter v0.97b - (c)2007 guruware
# File Created: 11.09.2015 17:28:36

mtllib Yw_huanghunzhihu.mtl

#
# object yw_huanghunzhihu
#

v  9.0000 16.0044 15.0000
v  9.0000 16.0044 21.0000
v  12.0000 16.0044 21.0000
v  12.0000 16.0044 12.0000
v  15.0000 16.0044 27.0000
v  12.0000 16.0043 27.0000
v  12.0000 16.0044 9.0000
v  27.0000 16.0044 30.0000
v  15.0000 16.0044 30.0000
v  21.0000 16.0044 -0.0000
v  27.0000 16.0044 -0.0000
v  27.0000 16.0044 3.0000
v  30.0000 16.0044 3.0000
v  30.0000 16.0044 6.0000
v  30.0000 16.0044 27.0000
v  33.0000 16.0044 6.0000
v  33.0000 16.0044 9.0000
v  45.0000 16.0044 27.0000
v  39.0000 16.0044 9.0000
v  39.0000 16.0044 12.0000
v  42.0000 16.0044 12.0000
v  42.0000 16.0044 18.0000
v  45.0000 16.0045 18.0000
v  33.0000 14.9972 48.0000
v  33.0000 14.9972 39.0000
v  30.0000 14.9972 39.0000
v  30.0000 14.9972 51.0000
v  30.0000 14.9972 60.0000
v  30.0000 14.9972 36.0000
v  27.0000 14.9972 33.0000
v  15.0000 14.9972 33.0000
v  18.0000 14.9972 57.0000
v  6.0000 14.9972 42.0000
v  12.0000 14.9972 54.0000
v  6.0000 14.9972 54.0000
v  12.0000 14.9972 57.0000
v  18.0000 14.9972 60.0000
v  63.0000 16.0044 42.0000
v  63.0000 16.0044 48.0000
v  66.0000 16.0044 48.0000
v  66.0000 16.0044 39.0000
v  78.0000 16.0044 51.0000
v  66.0000 16.0044 51.0000
v  66.0000 16.0044 27.0000
v  69.0000 16.0044 6.0000
v  78.0000 16.0044 48.0000
v  81.0000 16.0044 42.0000
v  81.0000 16.0044 45.0000
v  84.0000 16.0044 6.0000
v  84.0000 16.0044 9.0000
v  84.0000 16.0044 36.0000
v  84.0000 16.0044 39.0000
v  87.0000 16.0044 9.0000
v  87.0000 16.0044 12.0000
v  87.0000 16.0044 30.0000
v  87.0000 16.0044 33.0000
v  90.0000 16.0044 12.0000
v  90.0000 16.0044 27.0000
v  69.0000 16.0044 3.0000
v  60.0000 16.0044 3.0000
v  60.0000 16.0044 27.0000
v  57.0000 16.0044 6.0000
v  57.0000 16.0044 15.0000
v  57.0000 16.0044 30.0000
v  54.0000 16.0044 18.0000
v  54.0000 16.0044 30.0000
v  12.0000 13.0012 81.0000
v  12.0000 13.0013 84.0000
v  15.0000 13.0013 84.0000
v  12.0000 13.0013 72.0000
v  18.0000 13.0013 87.0000
v  15.0000 12.7815 87.0000
v  18.0000 13.0013 66.0000
v  21.0000 13.0013 87.0000
v  18.0000 13.0013 63.0000
v  24.0000 13.0013 63.0000
v  24.0000 13.0013 66.0000
v  24.0000 13.0013 87.0000
v  27.0000 13.0013 87.0000
v  30.0000 13.0013 66.0000
v  30.0000 13.0013 72.0000
v  30.0000 13.0013 87.0000
v  33.0000 13.0013 72.0000
v  33.0000 13.0013 84.0000
v  9.0000 12.9996 81.0000
v  9.0000 13.0013 72.0000
v  9.0000 10.9504 84.0000
v  12.0000 11.4448 87.0000
v  15.0000 11.8660 90.0000
v  18.0000 12.0674 90.0000
v  21.0000 12.0674 90.0000
v  24.0000 12.4153 90.0000
v  27.0000 12.2322 90.0000
# 93 vertices

vn -0.0000 1.0000 0.0000
vn 0.0000 1.0000 -0.0000
vn -0.0008 1.0000 0.0008
vn -0.1741 0.9480 0.2665
vn -0.3403 0.9061 0.2515
vn -0.1583 0.9814 0.1086
vn -0.2417 0.9537 0.1787
vn -0.2840 0.9383 0.1971
vn -0.1160 0.9909 0.0680
vn -0.1767 0.9754 0.1319
vn -0.0669 0.9535 0.2940
vn -0.0353 0.9882 0.1490
vn -0.0322 0.9543 0.2971
vn 0.0000 0.9886 0.1503
vn -0.0284 0.9621 0.2711
vn -0.0139 0.9938 0.1102
vn -0.0418 0.9777 0.2060
vn 0.0074 0.9930 0.1178
vn 0.0395 0.9679 0.2481
vn 0.0000 0.9980 0.0634
# 20 vertex normals

vt 0.1563 0.0938 0.0000
vt 0.2188 0.0938 0.0000
vt 0.2188 0.1250 0.0000
vt 0.1250 0.1250 0.0000
vt 0.2813 0.1563 0.0000
vt 0.2813 0.1250 0.0000
vt 0.0938 0.1250 0.0000
vt 0.3125 0.2813 0.0000
vt 0.3125 0.1563 0.0000
vt 0.0000 0.2188 0.0000
vt 0.0000 0.2813 0.0000
vt 0.0313 0.2813 0.0000
vt 0.0313 0.3125 0.0000
vt 0.0625 0.3125 0.0000
vt 0.2813 0.3125 0.0000
vt 0.0625 0.3438 0.0000
vt 0.0938 0.3438 0.0000
vt 0.2813 0.4688 0.0000
vt 0.0938 0.4063 0.0000
vt 0.1250 0.4063 0.0000
vt 0.1250 0.4375 0.0000
vt 0.1875 0.4375 0.0000
vt 0.1875 0.4688 0.0000
vt 0.5000 0.3438 0.0000
vt 0.4063 0.3438 0.0000
vt 0.4063 0.3125 0.0000
vt 0.5313 0.3125 0.0000
vt 0.6250 0.3125 0.0000
vt 0.3750 0.3125 0.0000
vt 0.3438 0.2813 0.0000
vt 0.3438 0.1563 0.0000
vt 0.5938 0.1875 0.0000
vt 0.4375 0.0625 0.0000
vt 0.5625 0.1250 0.0000
vt 0.5625 0.0625 0.0000
vt 0.5938 0.1250 0.0000
vt 0.6250 0.1875 0.0000
vt 0.4375 0.6563 0.0000
vt 0.5000 0.6563 0.0000
vt 0.5000 0.6875 0.0000
vt 0.4063 0.6875 0.0000
vt 0.5313 0.8125 0.0000
vt 0.5313 0.6875 0.0000
vt 0.2813 0.6875 0.0000
vt 0.0625 0.7188 0.0000
vt 0.5000 0.8125 0.0000
vt 0.4375 0.8438 0.0000
vt 0.4688 0.8438 0.0000
vt 0.0625 0.8750 0.0000
vt 0.0938 0.8750 0.0000
vt 0.3750 0.8750 0.0000
vt 0.4063 0.8750 0.0000
vt 0.0938 0.9063 0.0000
vt 0.1250 0.9063 0.0000
vt 0.3125 0.9063 0.0000
vt 0.3438 0.9063 0.0000
vt 0.1250 0.9375 0.0000
vt 0.2813 0.9375 0.0000
vt 0.0313 0.7188 0.0000
vt 0.0313 0.6250 0.0000
vt 0.2813 0.6250 0.0000
vt 0.0625 0.5938 0.0000
vt 0.1563 0.5938 0.0000
vt 0.3125 0.5938 0.0000
vt 0.1875 0.5625 0.0000
vt 0.3125 0.5625 0.0000
vt 0.8438 0.1250 0.0000
vt 0.8750 0.1250 0.0000
vt 0.8750 0.1563 0.0000
vt 0.7500 0.1250 0.0000
vt 0.9063 0.1875 0.0000
vt 0.9063 0.1563 0.0000
vt 0.6875 0.1875 0.0000
vt 0.9063 0.2188 0.0000
vt 0.6563 0.1875 0.0000
vt 0.6563 0.2500 0.0000
vt 0.6875 0.2500 0.0000
vt 0.9063 0.2500 0.0000
vt 0.9063 0.2813 0.0000
vt 0.6875 0.3125 0.0000
vt 0.7500 0.3125 0.0000
vt 0.9063 0.3125 0.0000
vt 0.7500 0.3438 0.0000
vt 0.8750 0.3438 0.0000
vt 0.8438 0.0938 0.0000
vt 0.7500 0.0938 0.0000
vt 0.8750 0.0938 0.0000
vt 0.9063 0.1250 0.0000
vt 0.9375 0.1563 0.0000
vt 0.9375 0.1875 0.0000
vt 0.9375 0.2188 0.0000
vt 0.9375 0.2500 0.0000
vt 0.9375 0.2813 0.0000
# 93 texture coords

g yw_huanghunzhihu
usemtl _Yw_huanghunzhihu_Yw_huanghunzhihudefault
s 1
f 1/1/1 2/2/1 3/3/1 4/4/1 
f 5/5/1 4/4/1 3/3/1 6/6/1 
f 7/7/1 4/4/1 5/5/1 8/8/1 
f 5/5/1 9/9/1 8/8/1 
f 10/10/1 7/7/1 8/8/1 11/11/1 
f 12/12/1 11/11/1 8/8/1 13/13/1 
f 14/14/1 13/13/1 8/8/1 15/15/1 
f 16/16/1 14/14/1 15/15/1 17/17/1 
f 17/17/1 15/15/1 18/18/1 19/19/1 
f 20/20/1 19/19/1 18/18/1 21/21/1 
f 22/22/1 21/21/1 18/18/1 23/23/1 
f 24/24/2 25/25/2 26/26/2 27/27/2 
f 28/28/2 27/27/2 26/26/2 29/29/2 
f 28/28/2 29/29/2 30/30/2 31/31/2 
f 32/32/2 28/28/2 31/31/2 33/33/2 
f 34/34/2 32/32/2 33/33/2 35/35/2 
f 34/34/2 36/36/2 32/32/2 
f 32/32/2 37/37/2 28/28/2 
f 38/38/2 39/39/2 40/40/2 41/41/2 
f 42/42/2 41/41/2 40/40/2 43/43/2 
f 44/44/2 41/41/2 42/42/2 45/45/2 
f 45/45/2 42/42/2 46/46/2 47/47/2 
f 46/46/2 48/48/2 47/47/2 
f 49/49/2 45/45/2 47/47/2 50/50/2 
f 51/51/2 50/50/2 47/47/2 52/52/2 
f 53/53/2 50/50/2 51/51/2 54/54/2 
f 55/55/2 54/54/2 51/51/2 56/56/2 
f 57/57/2 54/54/2 55/55/2 58/58/2 
f 44/44/2 45/45/2 59/59/2 60/60/2 
f 61/61/2 44/44/2 60/60/2 62/62/2 
f 61/61/2 62/62/2 63/63/2 64/64/2 
f 64/64/2 63/63/2 65/65/2 66/66/2 
f 67/67/3 68/68/3 69/69/3 70/70/3 
f 71/71/3 70/70/3 69/69/3 72/72/3 
f 73/73/3 70/70/3 71/71/3 74/74/3 
f 75/75/3 73/73/3 74/74/3 76/76/3 
f 77/77/3 76/76/3 74/74/3 78/78/3 
f 77/77/3 78/78/3 79/79/3 80/80/3 
f 81/81/3 80/80/3 79/79/3 82/82/3 
f 83/83/3 81/81/3 82/82/3 84/84/3 
f 85/85/3 67/67/3 70/70/3 86/86/3 
f 85/85/4 87/87/5 67/67/6 
f 87/87/5 68/68/7 67/67/6 
f 68/68/7 88/88/8 69/69/9 
f 88/88/8 72/72/10 69/69/9 
f 72/72/10 89/89/11 71/71/12 
f 89/89/11 90/90/13 71/71/12 
f 71/71/12 90/90/13 74/74/14 
f 90/90/13 91/91/15 74/74/14 
f 74/74/14 91/91/15 78/78/16 
f 91/91/15 92/92/17 78/78/16 
f 78/78/16 92/92/17 79/79/18 
f 92/92/17 93/93/19 79/79/18 
f 79/79/18 93/93/19 82/82/20 
# 37 polygons - 17 triangles

